<svg width="20" height="18" viewBox="0 0 20 18" fill="none" xmlns="http://www.w3.org/2000/svg">
<path d="M20.0009 2.7992C19.2648 3.12537 18.475 3.34658 17.6451 3.44534C18.4925 2.93792 19.1411 2.13309 19.4485 1.17701C18.6537 1.64691 17.7763 1.98812 16.8415 2.17309C16.0929 1.37449 15.0281 0.877075 13.8471 0.877075C11.5812 0.877075 9.74408 2.71423 9.74408 4.9788C9.74408 5.29998 9.78032 5.61367 9.85032 5.91363C6.44098 5.74239 3.41781 4.10896 1.39444 1.62691C1.04075 2.23181 0.839539 2.93665 0.839539 3.68903C0.839539 5.11252 1.56441 6.36854 2.66421 7.10337C1.99183 7.08089 1.35944 6.89592 0.805813 6.58847V6.63971C0.805813 8.62683 2.22055 10.2853 4.09643 10.6627C3.75274 10.7552 3.39032 10.8064 3.01539 10.8064C2.75045 10.8064 2.49424 10.7802 2.24304 10.7302C2.76542 12.3611 4.28016 13.5472 6.07483 13.5797C4.67134 14.6795 2.90166 15.3331 0.979539 15.3331C0.648362 15.3331 0.322153 15.3131 0.000976562 15.2769C1.81689 16.4429 3.97274 17.1228 6.2898 17.1228C13.8371 17.1228 17.9626 10.8714 17.9626 5.44998L17.9489 4.91883C18.7549 4.3439 19.4523 3.62155 20.0009 2.7992Z" fill="#2C3E50" fill-opacity="0.3"/>
</svg>
